<svg width="151" height="24" viewBox="0 0 151 24" fill="none" xmlns="http://www.w3.org/2000/svg">
<path d="M81.8977 22.6493L74.1037 22.6756L66.4196 13.2626L66.6213 22.6656H60.5752V7.73343L66.3978 7.69528L66.3405 9.97199L74.0846 1.63281L81.3062 1.65462L71.6707 11.2303L81.8977 22.6493Z" fill="#8B32FE"/>
<path d="M59.3197 7.73877H53.936V22.7082H59.3197V7.73877Z" fill="#8B32FE"/>
<path d="M57.0963 3.18176C57.0963 1.60732 58.2773 0.392647 60.0634 0.393555C61.8495 0.394464 63.0288 1.52828 63.0278 3.1C63.0278 4.75711 61.8468 5.97179 60.0607 5.97088C58.2746 5.96997 57.0953 4.7562 57.0963 3.18176Z" fill="#8B32FE"/>
<path d="M52.9412 14.1449V22.7076H47.5583V15.0016C47.5583 12.8476 46.5962 11.9354 45.0391 11.9345C43.3129 11.9345 41.9783 12.9829 41.9774 15.4686L41.9729 22.7049H36.5891L36.5973 7.73449L41.7285 7.73358V9.36344C42.9468 8.12151 44.6757 7.48737 46.6026 7.48828C50.1966 7.48737 52.9439 9.50517 52.9412 14.1449Z" fill="#8B32FE"/>
<path d="M5.73362 7.70996H0.349854V22.6794H5.73362V7.70996Z" fill="#8B32FE"/>
<path d="M14.0745 8.13037C16.1141 8.13037 18.4353 8.76633 19.8817 10.2881L17.8112 13.4906C16.9618 12.6893 15.659 12.1078 14.3834 12.1078C12.0613 12.1078 10.8984 13.8176 10.8975 15.5029C10.8966 17.1882 12.0858 19.0388 14.5506 19.0397C15.966 19.0397 17.4978 18.213 18.548 17.3299L20.3314 20.6732C18.8851 22.1087 16.5048 23.0181 14.0682 23.0172C8.85522 23.0172 5.93984 19.474 5.94257 15.5556C5.93894 11.7435 8.83251 8.12765 14.0745 8.13037Z" fill="#8B32FE"/>
<path d="M19.1413 15.1755C19.1413 10.6739 22.8007 7.4714 27.8166 7.47412C32.8869 7.47412 36.4827 10.683 36.48 15.1855C36.48 19.7144 32.8778 22.9442 27.8075 22.9414C22.7926 22.9387 19.1386 19.7053 19.1413 15.1755ZM31.0426 15.1819C31.0426 12.917 29.6572 11.646 27.8166 11.6451C25.9996 11.6451 24.585 12.917 24.5832 15.1783C24.5832 17.4713 25.9996 18.7696 27.8129 18.7705C29.6481 18.7723 31.039 17.475 31.0399 15.1828L31.0426 15.1819Z" fill="#8B32FE"/>
<path d="M0.317872 3.18176C0.317872 1.60732 1.49892 0.392647 3.28503 0.393555C5.07114 0.394464 6.24946 1.52828 6.24856 3.1C6.24856 4.75711 5.06751 5.97179 3.28231 5.97088C1.4971 5.96997 0.316963 4.7562 0.317872 3.18176Z" fill="#8B32FE"/>
<path d="M85.3757 15.6001V7.76815H90.3795V8.83961H86.5124V11.0369H89.7268V12.1084H86.5124V14.5287H90.3795V15.6001H85.3757Z" fill="white"/>
<path d="M93.2738 15.6001L91.1417 9.72614H92.2893L93.8503 14.1751L95.4112 9.72614H96.5588L94.4268 15.6001H93.2738Z" fill="white"/>
<path d="M99.9315 15.7633C99.3477 15.7633 98.8347 15.6364 98.3923 15.3826C97.9536 15.1251 97.6109 14.768 97.3644 14.3111C97.1214 13.8506 97 13.3176 97 12.7121C97 12.0703 97.1196 11.5137 97.3589 11.0423C97.6019 10.571 97.9391 10.2066 98.3705 9.94914C98.802 9.6917 99.3042 9.56298 99.8771 9.56298C100.475 9.56298 100.985 9.70257 101.405 9.98177C101.826 10.2573 102.14 10.6508 102.346 11.162C102.557 11.6733 102.64 12.2806 102.597 12.984H101.46V12.5707C101.453 11.889 101.322 11.385 101.068 11.0587C100.818 10.7323 100.435 10.5692 99.9206 10.5692C99.3514 10.5692 98.9235 10.7487 98.6371 11.1076C98.3506 11.4666 98.2074 11.9851 98.2074 12.6631C98.2074 13.3085 98.3506 13.8089 98.6371 14.1643C98.9235 14.516 99.3368 14.6918 99.8771 14.6918C100.232 14.6918 100.539 14.6121 100.796 14.4525C101.057 14.2894 101.26 14.0573 101.405 13.7563L102.52 14.1099C102.292 14.6356 101.946 15.0435 101.482 15.3336C101.017 15.6201 100.501 15.7633 99.9315 15.7633ZM97.8375 12.984V12.0975H102.031V12.984H97.8375Z" fill="white"/>
<path d="M107.78 15.6001V12.7121C107.78 12.4837 107.76 12.2498 107.72 12.0105C107.684 11.7675 107.611 11.5427 107.503 11.336C107.398 11.1294 107.247 10.9626 107.051 10.8357C106.859 10.7088 106.607 10.6453 106.295 10.6453C106.092 10.6453 105.9 10.6798 105.719 10.7487C105.537 10.8139 105.378 10.9209 105.24 11.0695C105.106 11.2182 104.999 11.414 104.919 11.6569C104.843 11.8999 104.805 12.1954 104.805 12.5435L104.098 12.277C104.098 11.744 104.198 11.2744 104.397 10.8683C104.597 10.4586 104.883 10.1395 105.256 9.91106C105.63 9.68263 106.081 9.56841 106.611 9.56841C107.017 9.56841 107.358 9.63368 107.633 9.76421C107.909 9.89475 108.132 10.067 108.302 10.2809C108.476 10.4912 108.609 10.7215 108.699 10.9716C108.79 11.2218 108.852 11.4666 108.884 11.7059C108.917 11.9452 108.933 12.1555 108.933 12.3368V15.6001H107.78ZM103.652 15.6001V9.72614H104.669V11.4231H104.805V15.6001H103.652Z" fill="white"/>
<path d="M113.711 15.6001C113.341 15.6726 112.979 15.7035 112.623 15.6926C112.268 15.6817 111.951 15.6128 111.671 15.4859C111.392 15.359 111.182 15.1596 111.04 14.8876C110.914 14.6447 110.845 14.3981 110.834 14.1479C110.827 13.8941 110.823 13.6077 110.823 13.2886V8.09448H111.965V13.2342C111.965 13.4699 111.967 13.6748 111.971 13.8488C111.978 14.0229 112.016 14.1697 112.085 14.2894C112.215 14.5142 112.422 14.6429 112.705 14.6755C112.991 14.7045 113.327 14.6918 113.711 14.6374V15.6001ZM109.697 10.6399V9.72614H113.711V10.6399H109.697Z" fill="white"/>
<path d="M116.583 15.6001L119.129 7.76815H120.766L123.311 15.6001H122.131L119.787 8.45345H120.08L117.763 15.6001H116.583ZM117.905 13.8325V12.7665H121.995V13.8325H117.905Z" fill="white"/>
<path d="M127.436 15.6001C127.066 15.6726 126.703 15.7035 126.348 15.6926C125.992 15.6817 125.675 15.6128 125.396 15.4859C125.117 15.359 124.906 15.1596 124.765 14.8876C124.638 14.6447 124.569 14.3981 124.558 14.1479C124.551 13.8941 124.547 13.6077 124.547 13.2886V8.09448H125.69V13.2342C125.69 13.4699 125.691 13.6748 125.695 13.8488C125.702 14.0229 125.74 14.1697 125.809 14.2894C125.94 14.5142 126.147 14.6429 126.429 14.6755C126.716 14.7045 127.051 14.6918 127.436 14.6374V15.6001ZM123.422 10.6399V9.72614H127.436V10.6399H123.422Z" fill="white"/>
<path d="M131.014 15.7633C130.43 15.7633 129.917 15.6364 129.474 15.3826C129.036 15.1251 128.693 14.768 128.446 14.3111C128.204 13.8506 128.082 13.3176 128.082 12.7121C128.082 12.0703 128.202 11.5137 128.441 11.0423C128.684 10.571 129.021 10.2066 129.453 9.94914C129.884 9.6917 130.386 9.56298 130.959 9.56298C131.557 9.56298 132.067 9.70257 132.487 9.98177C132.908 10.2573 133.222 10.6508 133.428 11.162C133.639 11.6733 133.722 12.2806 133.679 12.984H132.542V12.5707C132.535 11.889 132.404 11.385 132.15 11.0587C131.9 10.7323 131.518 10.5692 131.003 10.5692C130.433 10.5692 130.006 10.7487 129.719 11.1076C129.433 11.4666 129.289 11.9851 129.289 12.6631C129.289 13.3085 129.433 13.8089 129.719 14.1643C130.006 14.516 130.419 14.6918 130.959 14.6918C131.315 14.6918 131.621 14.6121 131.878 14.4525C132.139 14.2894 132.342 14.0573 132.487 13.7563L133.602 14.1099C133.374 14.6356 133.028 15.0435 132.564 15.3336C132.1 15.6201 131.583 15.7633 131.014 15.7633ZM128.92 12.984V12.0975H133.113V12.984H128.92Z" fill="white"/>
<path d="M135.008 15.6001V7.60498H136.144V15.6001H135.008Z" fill="white"/>
<path d="M137.886 8.76346V7.65937H139.023V8.76346H137.886ZM137.886 15.6001V9.72614H139.023V15.6001H137.886Z" fill="white"/>
<path d="M143.262 15.7633C142.678 15.7633 142.165 15.6364 141.722 15.3826C141.284 15.1251 140.941 14.768 140.694 14.3111C140.452 13.8506 140.33 13.3176 140.33 12.7121C140.33 12.0703 140.45 11.5137 140.689 11.0423C140.932 10.571 141.269 10.2066 141.701 9.94914C142.132 9.6917 142.634 9.56298 143.207 9.56298C143.805 9.56298 144.315 9.70257 144.735 9.98177C145.156 10.2573 145.47 10.6508 145.676 11.162C145.887 11.6733 145.97 12.2806 145.927 12.984H144.79V12.5707C144.783 11.889 144.652 11.385 144.398 11.0587C144.148 10.7323 143.766 10.5692 143.251 10.5692C142.681 10.5692 142.254 10.7487 141.967 11.1076C141.681 11.4666 141.537 11.9851 141.537 12.6631C141.537 13.3085 141.681 13.8089 141.967 14.1643C142.254 14.516 142.667 14.6918 143.207 14.6918C143.563 14.6918 143.869 14.6121 144.126 14.4525C144.387 14.2894 144.59 14.0573 144.735 13.7563L145.85 14.1099C145.622 14.6356 145.276 15.0435 144.812 15.3336C144.348 15.6201 143.831 15.7633 143.262 15.7633ZM141.168 12.984V12.0975H145.361V12.984H141.168Z" fill="white"/>
<path d="M147.147 15.6001V9.72614H148.158V11.1511L148.017 10.9662C148.09 10.7777 148.184 10.6054 148.3 10.4495C148.416 10.29 148.55 10.1594 148.702 10.0579C148.851 9.94914 149.016 9.86574 149.197 9.80772C149.382 9.74608 149.571 9.70983 149.763 9.69895C149.955 9.68444 150.14 9.69351 150.318 9.72614V10.7922C150.126 10.7414 149.912 10.7269 149.676 10.7487C149.444 10.7704 149.23 10.8447 149.034 10.9716C148.849 11.0913 148.702 11.2363 148.594 11.4068C148.488 11.5772 148.412 11.7675 148.365 11.9778C148.318 12.1845 148.294 12.4039 148.294 12.6359V15.6001H147.147Z" fill="white"/>
</svg>
