<svg width="120" height="121" viewBox="0 0 120 121" fill="none" xmlns="http://www.w3.org/2000/svg">
<path d="M40.2587 60.593L43.2516 61.5611C45.2764 62.2653 47.5652 62.1776 49.5023 61.2086L50.5591 60.6807C52.056 59.9765 53.8159 59.8002 55.4015 60.4167C55.4015 60.4167 76.4355 67.7213 76.4424 67.7232C76.7073 67.8148 75.4139 70.4259 75.2912 70.6694C73.9939 73.2425 71.8902 74.009 69.1174 73.2357C66.0154 72.3708 62.966 71.1612 59.8913 70.1863C59.6274 70.0986 59.3634 70.0986 59.1871 70.2739C59.0109 70.3616 58.8346 70.6265 58.7469 70.8018C58.7469 70.8895 57.4263 75.7319 53.1127 78.0206C50.3837 79.5176 47.0383 79.5176 43.1649 78.1969M43.9451 94.674C42.3001 95.4969 40.3025 94.7918 39.4796 93.1459C38.6566 91.5009 39.3617 89.5033 41.0077 88.6804L51.3489 83.6276M54.5863 96.9072L43.8408 102.103C42.1959 102.926 40.1983 102.221 39.3753 100.575C38.5524 98.9291 39.2575 96.8147 40.9035 96.1095L43.6061 94.8171L62.9952 85.2989M56.8614 103.37L51.0937 106.155C50.2708 106.507 49.3309 106.625 48.5089 106.273C47.6859 106.038 46.9808 105.333 46.6282 104.51C46.2757 103.687 46.1578 102.747 46.5104 101.925C46.863 101.102 47.4502 100.397 48.2732 100.044L52.504 97.9289L66.5277 91.012M94.5761 86.2114L88.9419 91.0538C85.4201 94.3107 81.7727 98.1675 77.4592 100.281L57.211 110.229C56.5945 110.493 55.6264 110.141 55.0109 109.877C53.0991 109.058 52.5069 105.374 54.6963 104.436L64.2234 99.7832M94.5761 86.2114L82.6911 61.9137L91.6708 57.5115L103.556 81.8092L94.5761 86.2114ZM31.543 86.1228L22.123 82.866L30.9265 57.2476L39.9938 60.4167L40.0814 60.5044L40.2577 60.5921L31.543 86.1228Z" stroke="#8B32FE" stroke-width="1.5" stroke-miterlimit="10" stroke-linecap="round" stroke-linejoin="round"/>
<path d="M82.6877 61.9141L70.8027 63.3224" stroke="#8B32FE" stroke-width="1.5" stroke-miterlimit="10" stroke-linecap="round" stroke-linejoin="round"/>
<path d="M39.1163 91.0531L31.5449 86.123" stroke="#8B32FE" stroke-width="1.5" stroke-miterlimit="10" stroke-linecap="round" stroke-linejoin="round"/>
<circle cx="11.649" cy="45.1685" r="4.86968" stroke="#8B32FE" stroke-width="1.5"/>
<circle cx="104.973" cy="42.8818" r="8.24802" stroke="#8B32FE" stroke-width="1.5"/>
<circle cx="92.8465" cy="12.2254" r="1.90311" stroke="#8B32FE" stroke-width="1.5"/>
<circle cx="62.8371" cy="33.112" r="13.6047" stroke="#8B32FE" stroke-width="1.5"/>
<path d="M60.5356 37.1135C61.2848 38.1622 61.8841 38.9863 62.3337 39.6606C62.4085 39.8854 62.6333 39.9603 62.8581 39.9603C63.0829 39.9603 63.2327 39.8854 63.3825 39.7355L65.1805 37.1883C66.0046 35.8399 66.6039 35.0156 66.9036 34.5661C67.2782 33.8918 67.5778 33.3674 67.7277 32.9179C67.8775 32.4684 67.9525 32.019 67.9525 31.4196C67.9525 30.5206 67.7277 29.6216 67.2782 28.8724C66.8287 28.0483 66.1544 27.449 65.4052 26.9995C64.6561 26.55 63.757 26.3252 62.8581 26.3252C61.9591 26.3252 61.06 26.55 60.3109 26.9995C59.4868 27.449 58.8874 28.1232 58.4379 28.8724C57.9884 29.6216 57.7637 30.5206 57.7637 31.4196C57.7637 31.9441 57.7637 32.4684 57.9135 32.9179C58.0633 33.3674 58.363 33.8918 58.8125 34.4912C59.0373 34.9408 59.6366 35.8399 60.5356 37.1135Z" stroke="#8B32FE" stroke-width="1.5" stroke-linecap="round" stroke-linejoin="round"/>
<path d="M62.87 32.5622C63.632 32.5622 64.2497 31.9445 64.2497 31.1825C64.2497 30.4205 63.632 29.8027 62.87 29.8027C62.108 29.8027 61.4902 30.4205 61.4902 31.1825C61.4902 31.9445 62.108 32.5622 62.87 32.5622Z" fill="#8B32FE"/>
<path d="M30.5708 12.8174C34.851 12.8174 38.3623 16.3296 38.3623 20.6089C38.3623 24.8881 34.8501 28.4004 30.5708 28.4004C26.2915 28.4004 22.7793 24.8891 22.7793 20.6089C22.7793 16.3286 26.1815 12.8174 30.5708 12.8174Z" stroke="#8B32FE" stroke-width="1.5" stroke-miterlimit="10"/>
<path d="M30.5762 16.5488V20.7191L34.1974 23.4623" stroke="#8B32FE" stroke-width="1.5" stroke-miterlimit="10" stroke-linecap="round" stroke-linejoin="round"/>
<path d="M104.979 38.9561L106.133 41.2941L108.713 41.669L106.846 43.4889L107.287 46.0586L104.979 44.8453L102.671 46.0586L103.112 43.4889L101.245 41.669L103.825 41.2941L104.979 38.9561Z" stroke="#8B32FE" stroke-width="1.5" stroke-linejoin="round"/>
</svg>
