<svg width="121" height="121" viewBox="0 0 121 121" fill="none" xmlns="http://www.w3.org/2000/svg">
<path d="M76.7848 27.4811C76.7848 18.4402 69.4438 11.022 60.3257 11.022C51.2075 11.022 43.9438 18.4402 43.9438 27.4811C43.9438 36.522 51.2848 43.9401 60.4029 43.9401C69.5211 43.9401 76.7848 36.522 76.7848 27.4811Z" stroke="#8B32FE" stroke-width="1.5" stroke-miterlimit="10" stroke-linecap="round" stroke-linejoin="round"/>
<path d="M14.4259 55.3766C14.4259 52.6721 16.6668 50.4312 19.3714 50.4312H45.6441C48.3486 50.4312 50.5895 52.6721 50.5895 55.3766M34.8259 85.0493L32.4304 93.0084L30.035 85.0493H34.8259ZM34.8259 85.0493H36.7577C40.8532 85.5902 43.9441 88.9902 43.9441 93.163V101.354H20.9168V93.163C20.9168 88.9902 24.0077 85.5902 28.0259 85.0493M14.4259 101.354V58.6993H50.5895V101.431M50.5123 104.677C50.5123 107.381 48.2713 109.622 45.5668 109.622H19.2941C16.5895 109.622 14.3486 107.381 14.3486 104.677M32.4304 81.6493C28.7986 81.6493 25.8623 78.713 25.8623 75.0811C25.8623 71.4493 28.7986 68.513 32.4304 68.513C36.0623 68.513 38.9986 71.4493 38.9986 75.0811C38.9986 78.713 36.0623 81.6493 32.4304 81.6493Z" stroke="#8B32FE" stroke-width="1.5" stroke-miterlimit="10" stroke-linecap="round" stroke-linejoin="round"/>
<path d="M70.2119 55.3766C70.2119 52.6721 72.4528 50.4312 75.1574 50.4312H101.43C104.135 50.4312 106.376 52.6721 106.376 55.3766M70.2119 101.354V58.6993H106.376V101.431M106.376 104.677C106.376 107.381 104.135 109.622 101.43 109.622H75.1574C72.4528 109.622 70.2119 107.381 70.2119 104.677M88.2937 81.6493C84.6619 81.6493 81.7255 78.713 81.7255 75.0811C81.7255 71.4493 84.6619 68.513 88.2937 68.513C91.9255 68.513 94.8619 71.4493 94.8619 75.0811C94.8619 78.713 91.9255 81.6493 88.2937 81.6493ZM91.5392 84.9721C96.0983 84.9721 99.7301 88.6811 99.7301 93.163V101.354H76.7801V93.163C76.7801 88.6039 80.4892 84.9721 84.971 84.9721H91.5392Z" stroke="#8B32FE" stroke-width="1.5" stroke-miterlimit="10" stroke-linecap="round" stroke-linejoin="round"/>
<path d="M88.2988 91.54V88.2173" stroke="#8B32FE" stroke-width="1.5" stroke-miterlimit="10" stroke-linecap="round" stroke-linejoin="round"/>
<path d="M88.2988 98.1084V94.7856" stroke="#8B32FE" stroke-width="1.5" stroke-miterlimit="10" stroke-linecap="round" stroke-linejoin="round"/>
<path d="M20.9888 40.6172C22.766 40.6172 24.3115 42.0854 24.3115 43.9399" stroke="#8B32FE" stroke-width="1.5" stroke-miterlimit="10" stroke-linecap="round" stroke-linejoin="round"/>
<path d="M20.9888 34.0493C26.3979 34.0493 30.8797 38.4539 30.8797 43.9402" stroke="#8B32FE" stroke-width="1.5" stroke-miterlimit="10" stroke-linecap="round" stroke-linejoin="round"/>
<path d="M20.9888 27.4814C30.0297 27.4814 37.4479 34.8224 37.4479 43.9405" stroke="#8B32FE" stroke-width="1.5" stroke-miterlimit="10" stroke-linecap="round" stroke-linejoin="round"/>
<path d="M96.4873 43.9399C96.4873 42.1626 97.9555 40.6172 99.81 40.6172" stroke="#8B32FE" stroke-width="1.5" stroke-miterlimit="10" stroke-linecap="round" stroke-linejoin="round"/>
<path d="M89.916 43.9402C89.916 38.5311 94.3206 34.0493 99.8069 34.0493" stroke="#8B32FE" stroke-width="1.5" stroke-miterlimit="10" stroke-linecap="round" stroke-linejoin="round"/>
<path d="M83.3533 43.9405C83.3533 34.8224 90.6942 27.4814 99.8124 27.4814" stroke="#8B32FE" stroke-width="1.5" stroke-miterlimit="10" stroke-linecap="round" stroke-linejoin="round"/>
<path d="M28.0989 85.0488H30.108" stroke="#8B32FE" stroke-width="1.5" stroke-miterlimit="10" stroke-linecap="round" stroke-linejoin="round"/>
<path d="M60.3986 43.94C57.3849 37.4491 50.894 27.4809 60.3986 11.0991" stroke="#8B32FE" stroke-width="1.5" stroke-miterlimit="10" stroke-linecap="round" stroke-linejoin="round"/>
<path d="M60.475 43.94C63.4113 37.4491 69.9022 27.4809 60.3977 11.0991" stroke="#8B32FE" stroke-width="1.5" stroke-miterlimit="10" stroke-linecap="round" stroke-linejoin="round"/>
<path d="M73.2975 17.4355C67.4248 20.2174 59.1566 23.1537 47.2566 17.5901" stroke="#8B32FE" stroke-width="1.5" stroke-miterlimit="10" stroke-linecap="round" stroke-linejoin="round"/>
<path d="M73.2975 37.5269C67.4248 34.745 59.1566 31.8087 47.2566 37.3723" stroke="#8B32FE" stroke-width="1.5" stroke-miterlimit="10" stroke-linecap="round" stroke-linejoin="round"/>
<path d="M44.6372 27.4038H76.7054" stroke="#8B32FE" stroke-width="1.5" stroke-miterlimit="10" stroke-linecap="round" stroke-linejoin="round"/>
</svg>
