<svg width="120" height="121" viewBox="0 0 120 121" fill="none" xmlns="http://www.w3.org/2000/svg">
<path d="M86.8151 60.564V31.0094L68.8744 13.228H17.2626C14.8608 13.228 12.778 15.311 12.778 17.7128V101.329C12.778 104.692 15.5002 107.417 18.8656 107.417H26.6236H82.3303C84.7339 107.417 86.8151 105.333 86.8151 102.932V76.2694M85.7683 31.5992H73.3627C70.5819 31.5992 68.444 29.4595 68.444 26.6805V14.2748" stroke="#8B32FE" stroke-width="1.5" stroke-miterlimit="10" stroke-linecap="round" stroke-linejoin="round"/>
<path d="M56.8322 31.1685H22.2332" stroke="#8B32FE" stroke-width="1.5" stroke-miterlimit="10" stroke-linecap="round" stroke-linejoin="round"/>
<path d="M50.9092 40.2993H22.2332" stroke="#8B32FE" stroke-width="1.5" stroke-miterlimit="10" stroke-linecap="round" stroke-linejoin="round"/>
<path d="M66.2871 49.5898H22.2332" stroke="#8B32FE" stroke-width="1.5" stroke-miterlimit="10" stroke-linecap="round" stroke-linejoin="round"/>
<path d="M39.8816 58.4458H22.2332" stroke="#8B32FE" stroke-width="1.5" stroke-miterlimit="10" stroke-linecap="round" stroke-linejoin="round"/>
<path d="M57.594 58.4458H47.0304" stroke="#8B32FE" stroke-width="1.5" stroke-miterlimit="10" stroke-linecap="round" stroke-linejoin="round"/>
<path d="M101.326 61.5103C102.405 60.15 103.707 59.0148 103.019 57.1178L105.66 54.4769C107.293 52.8438 107.888 50.7449 106.254 49.1101C105.437 48.2936 104.466 47.9977 103.386 47.9995C102.306 47.9995 101.446 48.6283 100.63 49.4448L97.9855 52.0892M101.326 61.5103L68.7036 94.124C68.5442 94.2851 68.3458 94.4056 68.1261 94.471L58.6802 97.1705C57.6582 97.4698 57.6352 97.4485 57.9345 96.4248L60.6338 86.9787C60.6976 86.7557 60.8199 86.5537 60.9846 86.3908L94.5511 52.8242C95.4704 51.905 96.8288 51.6659 97.9855 52.0892M101.326 61.5103L101.554 61.7389C102.628 62.8122 102.628 64.479 101.554 65.5541L94.9673 72.1412L101.326 61.5103ZM97.9855 52.0892L103.071 57.0132M60.7242 86.7698L68.1244 94.471M79.113 83.7162L71.38 75.9937" stroke="#8B32FE" stroke-width="1.5" stroke-miterlimit="10" stroke-linecap="round" stroke-linejoin="round"/>
<path d="M20.6271 91.4595C20.6271 91.4595 22.0405 94.3501 25.2535 96.1355C28.4666 97.9209 33.5855 98.3868 39.7776 94.6725C44.9744 91.5551 47.8402 92.2317 49.7514 93.2945C51.6625 94.3572 52.5057 96.0203 52.5057 96.0203" stroke="#8B32FE" stroke-width="1.5" stroke-miterlimit="10" stroke-linecap="round" stroke-linejoin="round"/>
</svg>
