<svg width="120" height="121" viewBox="0 0 120 121" fill="none" xmlns="http://www.w3.org/2000/svg">
<path d="M109.917 104.88V49.9277L100.328 41.4673" stroke="#8B32FE" stroke-width="1.5" stroke-miterlimit="10" stroke-linecap="round" stroke-linejoin="round"/>
<path d="M94.6067 41.4673L87.516 47.6716" stroke="#8B32FE" stroke-width="1.5" stroke-miterlimit="10" stroke-linecap="round" stroke-linejoin="round"/>
<path d="M97.2738 55.6488V31.1538" stroke="#8B32FE" stroke-width="1.5" stroke-miterlimit="10" stroke-linecap="round" stroke-linejoin="round"/>
<path d="M94.2868 48.7192L91.5472 51.0559V56.6962" stroke="#8B32FE" stroke-width="1.5" stroke-miterlimit="10" stroke-linecap="round" stroke-linejoin="round"/>
<path d="M103.31 56.6157V50.9754L100.571 48.6387" stroke="#8B32FE" stroke-width="1.5" stroke-miterlimit="10" stroke-linecap="round" stroke-linejoin="round"/>
<path d="M90.5004 59.1943H110" stroke="#8B32FE" stroke-width="1.5" stroke-miterlimit="10" stroke-linecap="round" stroke-linejoin="round"/>
<path d="M94.1234 67.4131H90.4169H90.3363" stroke="#8B32FE" stroke-width="1.5" stroke-miterlimit="10" stroke-linecap="round" stroke-linejoin="round"/>
<path d="M94.1234 74.8257H90.4169H90.3363" stroke="#8B32FE" stroke-width="1.5" stroke-miterlimit="10" stroke-linecap="round" stroke-linejoin="round"/>
<path d="M94.1234 82.1582H90.4169H90.3363" stroke="#8B32FE" stroke-width="1.5" stroke-miterlimit="10" stroke-linecap="round" stroke-linejoin="round"/>
<path d="M94.1234 89.5713H90.4169H90.3363" stroke="#8B32FE" stroke-width="1.5" stroke-miterlimit="10" stroke-linecap="round" stroke-linejoin="round"/>
<path d="M94.1234 96.9038H90.4169H90.3363" stroke="#8B32FE" stroke-width="1.5" stroke-miterlimit="10" stroke-linecap="round" stroke-linejoin="round"/>
<path d="M104.514 67.4131H100.808H100.727" stroke="#8B32FE" stroke-width="1.5" stroke-miterlimit="10" stroke-linecap="round" stroke-linejoin="round"/>
<path d="M104.678 74.8257H100.971H100.649" stroke="#8B32FE" stroke-width="1.5" stroke-miterlimit="10" stroke-linecap="round" stroke-linejoin="round"/>
<path d="M104.514 82.1582H100.808H100.727" stroke="#8B32FE" stroke-width="1.5" stroke-miterlimit="10" stroke-linecap="round" stroke-linejoin="round"/>
<path d="M104.514 89.5713H100.808H100.727" stroke="#8B32FE" stroke-width="1.5" stroke-miterlimit="10" stroke-linecap="round" stroke-linejoin="round"/>
<path d="M104.514 96.9038H100.808H100.727" stroke="#8B32FE" stroke-width="1.5" stroke-miterlimit="10" stroke-linecap="round" stroke-linejoin="round"/>
<path d="M82.1958 104.881C82.2764 104.397 88.4001 53.957 77.603 32.9268H68.5785V105.123" stroke="#8B32FE" stroke-width="1.5" stroke-miterlimit="10" stroke-linecap="round" stroke-linejoin="round"/>
<path d="M68.1022 38.1641L61.4144 43.2403V105.364" stroke="#8B32FE" stroke-width="1.5" stroke-miterlimit="10" stroke-linecap="round" stroke-linejoin="round"/>
<path d="M74.4613 56.4546H76.5563V58.7107H74.4613V56.4546Z" stroke="#8B32FE" stroke-width="1.5" stroke-miterlimit="10" stroke-linecap="round" stroke-linejoin="round"/>
<path d="M74.4613 64.1094H76.5563V66.3655H74.4613V64.1094Z" stroke="#8B32FE" stroke-width="1.5" stroke-miterlimit="10" stroke-linecap="round" stroke-linejoin="round"/>
<path d="M74.4613 71.9253H76.5563V74.1814H74.4613V71.9253Z" stroke="#8B32FE" stroke-width="1.5" stroke-miterlimit="10" stroke-linecap="round" stroke-linejoin="round"/>
<path d="M74.4613 79.5796H76.5563V81.8357H74.4613V79.5796Z" stroke="#8B32FE" stroke-width="1.5" stroke-miterlimit="10" stroke-linecap="round" stroke-linejoin="round"/>
<path d="M74.4613 87.2344H76.5563V89.4905H74.4613V87.2344Z" stroke="#8B32FE" stroke-width="1.5" stroke-miterlimit="10" stroke-linecap="round" stroke-linejoin="round"/>
<path d="M74.4613 94.9697H76.5563V97.2258H74.4613V94.9697Z" stroke="#8B32FE" stroke-width="1.5" stroke-miterlimit="10" stroke-linecap="round" stroke-linejoin="round"/>
<path d="M48.1987 48.3165C51.5829 34.538 52.4692 21.4042 52.6304 18.1006L38.8519 13.7495" stroke="#8B32FE" stroke-width="1.5" stroke-miterlimit="10" stroke-linecap="round" stroke-linejoin="round"/>
<path d="M52.6304 105.283C44.6534 67.01 38.9325 14.233 38.8519 13.7495" stroke="#8B32FE" stroke-width="1.5" stroke-miterlimit="10" stroke-linecap="round" stroke-linejoin="round"/>
<path d="M30.0674 81.1914L24.266 106.895" stroke="#8B32FE" stroke-width="1.5" stroke-miterlimit="10" stroke-linecap="round" stroke-linejoin="round"/>
<path d="M36.6743 14.2329L30.6311 17.0531C29.9865 22.4516 25.4743 64.0287 41.0254 105.203" stroke="#8B32FE" stroke-width="1.5" stroke-miterlimit="10" stroke-linecap="round" stroke-linejoin="round"/>
<path d="M29.9847 27.6087L39.9761 25.0303" stroke="#8B32FE" stroke-width="1.5" stroke-miterlimit="10" stroke-linecap="round" stroke-linejoin="round"/>
<path d="M29.5002 40.9036L41.9895 38.5669" stroke="#8B32FE" stroke-width="1.5" stroke-miterlimit="10" stroke-linecap="round" stroke-linejoin="round"/>
<path d="M30.141 54.5208L43.6777 52.1841" stroke="#8B32FE" stroke-width="1.5" stroke-miterlimit="10" stroke-linecap="round" stroke-linejoin="round"/>
<path d="M31.922 69.8304L45.8616 67.3325" stroke="#8B32FE" stroke-width="1.5" stroke-miterlimit="10" stroke-linecap="round" stroke-linejoin="round"/>
<path d="M34.5004 83.6087L48.1177 81.1108" stroke="#8B32FE" stroke-width="1.5" stroke-miterlimit="10" stroke-linecap="round" stroke-linejoin="round"/>
<path d="M37.7191 95.6951L50.2889 93.2778" stroke="#8B32FE" stroke-width="1.5" stroke-miterlimit="10" stroke-linecap="round" stroke-linejoin="round"/>
<path d="M41.1097 105.364H97.5127" stroke="#8B32FE" stroke-width="1.5" stroke-miterlimit="10" stroke-linecap="round" stroke-linejoin="round"/>
<path d="M16.6076 58.3882C15.3184 58.3882 14.1903 59.1939 13.304 60.0803C12.4176 59.1939 11.209 58.3882 10.0004 58.3882" stroke="#8B32FE" stroke-width="1.5" stroke-miterlimit="10" stroke-linecap="round" stroke-linejoin="round"/>
<path d="M24.3417 62.8203C23.1331 62.8203 21.9244 63.6261 21.0381 64.5124C20.1518 63.6261 18.9431 62.8203 17.7345 62.8203" stroke="#8B32FE" stroke-width="1.5" stroke-miterlimit="10" stroke-linecap="round" stroke-linejoin="round"/>
<path d="M89.2868 24.5465L86.7084 28.4141H85.4192L86.0638 24.627M85.9026 19.2285L85.1774 15.3608H86.4666L89.2868 19.2285M78.8925 17.2141C79.2148 17.2141 79.5371 17.3752 79.6983 17.617L81.3904 19.8731C81.8738 20.5177 82.6796 20.9206 83.4853 20.9206H85.258L92.5904 21.0011C92.9127 21.0011 93.3156 21.1623 93.4767 21.4846C93.6379 21.8069 93.6379 22.2098 93.4767 22.4515C93.3156 22.7738 92.9933 22.935 92.5904 22.935H85.4997C85.4192 22.935 85.258 22.935 85.1774 22.935H81.0681C80.8263 22.935 80.6652 22.8544 80.504 22.7738C80.3429 22.6932 80.1817 22.4515 80.1817 22.2903L78.3285 17.2141H78.8925Z" stroke="#8B32FE" stroke-width="1.5" stroke-miterlimit="10" stroke-linecap="round" stroke-linejoin="round"/>
</svg>
