<svg width="62" height="61" viewBox="0 0 62 61" fill="none" xmlns="http://www.w3.org/2000/svg">
<path d="M9.90411 28.9294V13.6499H46.395" stroke="#8B32FE" stroke-width="1.5" stroke-miterlimit="10" stroke-linecap="round" stroke-linejoin="round"/>
<path d="M50.4396 13.6499H52.1473V39.4452H9.90411V32.884" stroke="#8B32FE" stroke-width="1.5" stroke-miterlimit="10" stroke-linecap="round" stroke-linejoin="round"/>
<path d="M18.4443 44.9275C24.2864 44.9275 49.3627 44.9275 60.7773 44.9275C60.4178 48.3429 57.5417 51.1292 53.9465 51.1292H8.10816C4.51299 51.1292 1.63686 48.4328 1.27734 44.9275C1.4571 44.9275 9.45635 44.9275 9.27659 44.9275M5.7713 44.9275V11.5824C5.7713 10.4139 6.75997 9.51514 7.83852 9.51514H54.1263C55.2947 9.51514 56.1935 10.5038 56.1935 11.5824V44.9275" stroke="#8B32FE" stroke-width="1.5" stroke-miterlimit="10" stroke-linecap="round" stroke-linejoin="round"/>
<path d="M48.0176 22.5474H31.1204V26.6818H48.0176V22.5474Z" stroke="#8B32FE" stroke-width="1.5" stroke-miterlimit="10" stroke-linecap="round" stroke-linejoin="round"/>
<path d="M31.1204 18.8628H41.9957" stroke="#8B32FE" stroke-width="1.5" stroke-miterlimit="10" stroke-linecap="round" stroke-linejoin="round"/>
<path d="M48.0176 30.0977H31.1204V34.2321H48.0176V30.0977Z" stroke="#8B32FE" stroke-width="1.5" stroke-miterlimit="10" stroke-linecap="round" stroke-linejoin="round"/>
<path d="M18.8944 21.5034L24.0175 27.8849L21.8604 27.795C21.6806 27.795 21.5009 27.9747 21.5009 28.1545V28.2444L22.3996 31.5699L20.8717 32.0193L19.9729 28.6938C19.9729 28.514 19.7931 28.4241 19.6134 28.4241H19.5235L17.636 29.5925L18.8944 21.5034Z" stroke="#8B32FE" stroke-width="1.5" stroke-miterlimit="10" stroke-linecap="round" stroke-linejoin="round"/>
</svg>
